<svg width="295" height="743" viewBox="0 0 295 743" fill="none" xmlns="http://www.w3.org/2000/svg">
<path d="M208 736.5L207.5 695.5C216.167 698.333 237.3 703.7 250.5 704.5C263.7 705.3 283.333 700 291.5 697V737C257.5 745 222 740.5 208 736.5Z" fill="black"/>
<path d="M186.5 61.5L172 62.5L173.5 132C166 145 157.5 151 148.5 153V231.5L156.5 230C165.5 242 186 422 182 443.5C181.726 444.975 190 448.5 190.5 452C191 455.5 188 456.5 186 459C184 461.5 194 601.5 194.5 605.5C194.1 609.5 200.667 631.833 204 642.5C205.5 646.833 207.9 656.2 205.5 659C202.5 662.5 205.5 667.5 205.5 668.5C205.5 669.5 212 674 212 675.5C212 677 209.5 678 207.5 679C205.9 679.8 206.833 688.667 207.5 693C216 696 236.8 702.1 252 702.5C267.2 702.9 284.667 697.333 291.5 694.5C291.833 688.333 292.3 675.8 291.5 675C290.5 674 293.5 673.5 294.5 671.5C295.3 669.9 294.833 659.833 294.5 655C294.5 652 286 642.5 287 637C287.626 633.556 289.5 633.5 291.5 630C293.5 626.5 293 441 293 438.5C293 436 286.5 433.5 285.5 431C284.7 429 287.167 426.833 288.5 426C291.167 424 295.1 419.4 289.5 417C282.5 414 283 411.5 283 409.5C283 407.5 288.5 404.5 290.5 402C292.1 400 292.5 314.167 292.5 271.5C293.167 237.333 294.5 168.2 294.5 165C294.5 161 292 150 293 146C295 141.6 290.167 110 288 95.5C281.167 96.6667 263.481 98.8395 243 92.5C222 86 211.167 65.8333 208.5 56L204 56.5L205.5 75H188.5L186.5 61.5Z" fill="black"/>
<path d="M146.5 58.5V25.5C158 25 178 24.5 180.5 24C185.5 32.5 186 51.5 186.5 57.5C180.1 58.7 157 58.6667 146.5 58.5Z" fill="black"/>
<path d="M194 20.5H183.5C188.7 35.3 190.333 61 190.5 72H202.5C200.9 49.2 196.167 28.1667 194 20.5Z" fill="black"/>
<path d="M278 7C254 16.2 214.333 21.1667 197.5 22.5C199.167 32 202.7 51.6 203.5 54C212.7 54 261.5 44.5 282.5 37C282 27 280 11.5 278 7Z" fill="black"/>
<path d="M288 93C235.2 101 214.167 71.1667 211 55.5C217.8 56.7 261.5 46.3333 282.5 41C285 47.5 288 89 288 93Z" fill="black"/>
<path d="M85 53.5C55.4 50.7 26.3334 44.5 16 41.5C14 49 9.00002 84.5 9.00002 89.5C72 94 83.5 58 85 53.5Z" fill="black"/>
<path d="M148 151L146.5 62H170C170.5 83.5 171.5 127.4 171.5 131C163.1 145.8 152.333 150.5 148 151Z" fill="black"/>
<path d="M93 55L87.5 54C85 64.5 68 83 53.5 88C39.4473 92.8458 18.1667 93.5 9.00002 92.5C6.33335 104.667 1.00002 129.6 1.00002 132C1.00002 135 5.50002 137.5 5.50002 140C5.50002 142.5 2.5 145 2 147.5C1.5 150 4.50002 158 5.50002 161C6.50002 164 -1.99998 175 1.00002 179.5C3.40002 183.1 3.66668 185.667 3.50002 186.5L2.50002 404C6.33335 406.333 13.8 411.5 13 413.5C11.5 417.5 3.50002 419 2.50002 423C1.50002 427 12 428 9.50002 430C5.10002 432.8 3.00002 437.5 2.50002 439.5C3.33335 504.167 5.00002 633.7 5.00002 634.5C5.00002 635.5 11 639.5 11 641.5C11 643.1 5.33335 651.167 2.50002 655V665.5C2.50002 667.9 5.50002 672.167 7.00002 674V695C14.1667 697.5 32.7 702.5 49.5 702.5C70.5 702.5 89.5 694 92.5 692.5C93 686.5 92 679 90.5 678.5C89 678 89.5 674 89.5 672C89.5 670 93.5 667.5 95 667C96.5 666.5 95 658.5 93.5 651C104.7 617 105.167 582.833 104 570C104.8 564 109.5 556.5 109.5 549C111.5 529 113 455.5 113 449C116.6 446.6 118.167 444.333 118.5 443.5C118.333 432.833 118.1 407.9 118.5 393.5C118.9 379.1 133.667 281.833 141 235L146 233V154L144 61.5C138.8 61.5 118 60 109 58.5L108 74.5H91C91.8 71.3 92.6667 60.1667 93 55Z" fill="black"/>
<path d="M276.5 5.99999C186.1 -3.20001 69.1667 2.16666 22 5.99999C38.8 15.2 90.3333 18.1667 114 18.5V22C133.6 24 167.5 22.8333 182 22V18.5H196C196 18.6667 196.1 19.4 196.5 21C238.5 18.5 269 8.5 276.5 5.99999Z" fill="black"/>
<path d="M16.5 38.5C16.1 27.3 19.3333 12.8333 21 7C40.5 16.5 78 19.5 98.5 19.5L93.5 53C55 46.5 26.5 44.5 16.5 38.5Z" fill="black"/>
<path d="M112.5 20L100.5 19.5C95.7 45.1 93.5 65.5 93 73H106.5C107.3 51.8 111 30.5 112.5 20Z" fill="black"/>
<path d="M110.5 57C110.5 43 112.833 28.6667 114.5 24L144 25.5V59C135.5 58.6667 116.9 57.8 110.5 57Z" fill="black"/>
<path d="M92.5 735V694.5C87.1667 697.5 71 703 50.5 704C36.0172 704.707 11.5 699 4.5 695C4.16667 695 2.5 695.8 2.5 697C5.3 700.6 5.5 724.167 5 736C10.5 737.833 26.8 741.7 48 742.5C69.2 743.3 86.5 737.833 92.5 735Z" fill="black"/>
</svg>
