<svg width="390" height="844" viewBox="0 0 390 844" fill="none" xmlns="http://www.w3.org/2000/svg">
<rect width="390" height="844" fill="#F5F5F5"/>
<rect width="390" height="844" fill="white"/>
<path d="M142 180.5C79.6 204.9 52.6667 221.667 47 227C33.4 235.906 20 300.044 15 331C15 341.5 9 405.3 9 423.5C9 435.5 49.3333 431.333 64 428C64 450.5 55.2 515.7 60 516.5C63.5 565 62 605.167 60 649C92.5 679.5 177.1 665.2 205.5 656C233.9 646.8 306 647.5 338.5 649V428C352.5 434 382 428.7 382 419.5C371 246 349 234.5 346.5 230.5C346.5 216.9 278.167 192.5 244 182C235.5 216.5 206.6 218 195 218C139.5 213.5 152.5 183 142 180.5Z" stroke="black" stroke-width="5"/>
<path d="M119.5 210C129.667 223.833 159.9 252.4 199.5 256" stroke="black" stroke-width="2"/>
<path d="M143 180.5C160.5 189.5 205.2 202.1 244 180.5" stroke="black" stroke-width="4"/>
<path d="M345.654 227.142C345.715 227.689 346.502 228.405 346.756 228.886C347.169 229.671 347.69 230.367 348.224 231.069C348.997 232.084 350.796 235.466 350.284 234.296C350.117 233.914 349.92 233.599 349.693 233.251C349.351 232.729 349.201 232.105 348.912 231.553C348.547 230.854 347.961 230.283 347.536 229.621C347.287 229.233 347.097 228.829 346.801 228.468C346.608 228.232 346.455 227.601 346.113 227.601" stroke="black" stroke-width="2" stroke-linecap="round"/>
<path d="M59.266 501.915C59.266 502.84 59.2323 503.769 59.3142 504.691C59.3613 505.22 59.314 505.76 59.3732 506.286C59.4143 506.651 59.3765 507.027 59.4349 507.389C59.4944 507.757 59.5021 508.155 59.5073 508.528C59.5143 509.032 59.6248 509.539 59.6495 510.044C59.6814 510.697 59.7969 511.352 59.7969 512.007C59.7969 512.922 60.1348 513.797 60.1348 514.707C60.1348 515.139 60.2797 515.575 60.2797 516.01" stroke="black" stroke-width="2" stroke-linecap="round"/>
<path d="M58.8798 504.522C58.8798 503.501 58.8251 506.573 58.9656 507.584C59.0803 508.41 59.1629 509.243 59.2633 510.07C59.3264 510.591 59.4443 511.127 59.459 511.65C59.4954 512.941 59.6635 514.161 60.0115 515.404C60.0664 515.601 60.0944 515.792 60.1375 515.986C60.1513 516.048 60.2797 516.39 60.2797 516.203C60.2797 515.841 60.2797 515.479 60.2797 515.117C60.2797 514.856 60.3647 514.395 60.2555 514.155C60.1903 514.011 60.198 513.754 60.1804 513.597C60.1537 513.356 60.0519 513.111 60.0383 512.873C59.9987 512.179 59.7318 511.462 59.5797 510.786C59.4614 510.26 59.3696 509.719 59.2767 509.188C59.1034 508.197 59.2177 507.118 59.2177 506.115C59.2177 505.73 59.2177 505.346 59.2177 504.962C59.2177 504.625 59.186 504.686 58.8798 504.618" stroke="black" stroke-width="2" stroke-linecap="round"/>
<path d="M59.9888 513.208C60.0557 513.845 60.5622 514.574 60.7599 515.195C61.0007 515.952 61.0475 515.7 61.0475 515.091C61.0475 514.775 61.1721 514.171 60.9298 513.914C60.7038 513.675 60.4718 513.414 60.4593 513.065C60.4206 511.982 60.3417 510.928 60.3417 509.843C60.3417 508.699 59.9084 507.566 59.8711 506.412C59.842 505.508 59.8711 504.597 59.8711 503.693C59.8711 502.945 59.7868 502.123 59.9953 501.393C60.0461 501.215 60.1766 501.999 60.1783 502.007C60.3261 502.779 60.4733 503.537 60.5508 504.321C60.6945 505.773 60.4344 507.423 60.7861 508.83C60.9359 509.429 60.8122 510.178 60.8122 510.797C60.8122 511.585 60.9158 512.394 61.0997 513.156C61.228 513.687 61.2523 514.307 61.2827 514.855C61.2887 514.962 61.4219 515.64 61.4004 515.208C61.3262 513.726 60.8122 512.323 60.8122 510.81C60.8122 509.859 60.7046 508.899 60.6946 507.941C60.6875 507.273 60.631 506.423 60.3678 505.798C60.2103 505.424 60.3574 504.847 60.2828 504.445C60.19 503.943 60.224 503.424 60.224 502.915C60.224 501.958 60.3417 500.938 60.3417 500.033C60.3417 499.722 60.4593 499.581 60.4593 499.975C60.4593 500.436 60.5769 500.909 60.5769 501.386C60.5769 501.996 60.4593 502.477 60.4593 503.066C60.4593 505.783 60.8122 508.488 60.8122 511.209" stroke="black" stroke-width="2" stroke-linecap="round"/>
<path d="M124 188.5C124.333 205.333 139.9 239.1 199.5 239.5C225.5 239.5 257 221.5 264 188.5" stroke="black" stroke-width="4"/>
<path d="M43.5 230C38 262.5 49 325 57.5 353C64.3 375.4 66 412 65.5 428C67.1667 385.167 69.5 295.4 65.5 279M337 428L333 353C339.667 328 352.1 268.4 348.5 230M235 650C226 649 185.8 652.2 147 657C135 658 108.333 655.333 95.5 653.5" stroke="black" stroke-width="2"/>
<path d="M58 516C62.8333 537.833 72.8 583.7 74 618.5" stroke="black" stroke-width="2"/>
<path d="M327.5 272.5C326.667 306.667 324.6 381 323 405C321 435 327.5 455 327.5 506.5C327.5 547.7 308.167 591.333 298.5 608" stroke="black" stroke-width="2"/>
</svg>
