<svg width="384" height="488" viewBox="0 0 384 488" fill="none" xmlns="http://www.w3.org/2000/svg">
<path d="M7 152.5C14.6 97.7 29.1667 63.6667 35.5 53.5C28 84.5 48.5 169.5 51.5 184.5C52.5 189.5 60 256 57 249C15.5 256.5 2.5 250.167 1.5 246C2.83333 216.333 5.8 156.1 7 152.5Z" fill="black" stroke="black"/>
<path d="M38.8558 52.105C36.6891 49.105 51.6558 35.105 118.856 7.10497C120.356 15.605 125.856 59.605 197.856 58.605C218.848 58.605 248.835 44.6148 259.345 7.14458C258.874 6.96907 258.853 6.95032 259.356 7.10497C259.352 7.11818 259.348 7.13138 259.345 7.14458C264.964 9.23875 334.706 33.6515 344.856 52.105C344.856 68.105 343.356 111.105 328.856 172.105C328.856 178.505 331.522 224.105 332.856 246.105V468.105C303.022 466.272 236.256 464.705 207.856 473.105C172.356 483.605 92.8558 501.105 55.8558 468.105C55.8558 449.105 60.3558 371.105 57.3558 363.605C54.3558 356.105 54.3558 305.605 55.8558 294.605C57.3558 283.605 59.8558 228.105 59.3558 221.605C58.8558 215.105 53.8558 177.605 52.3558 170.605C50.8558 163.605 39.8558 128.605 39.8558 100.605C38.8558 97.605 36.8558 59.605 38.8558 52.105Z" fill="black"/>
<path d="M383.086 240.76C377.648 145.769 357.868 76.1038 348.659 53.1453C349.427 85.7743 337.555 147.956 331.522 174.968L337.276 249.397C363.983 257.836 383.157 243.782 383.086 240.76Z" fill="black"/>
<path d="M319.5 93.5C318.667 127.667 316.6 202 315 226C313 256 319.5 276 319.5 327.5C319.5 368.7 300.167 412.333 290.5 429" stroke="black" stroke-width="2"/>
<path d="M231 0.984222C197.938 8.858 174.938 9.84222 139 0C139.639 3.60881 142.163 13.4838 150.979 24.1134C159.796 34.743 179.25 36.4162 187.875 35.9241C230.042 33.4635 231 6.88955 231 0.984222Z" fill="black"/>
<path d="M136.77 0L121 5.54867C124.942 37.3274 151.554 54.9823 188.022 57C202.313 57 242.23 57 258 5.54867L233.36 1.00885C233.36 13.6195 226.46 37.8319 184.079 37.8319C150.137 37.8319 142.683 19.1681 136.77 0Z" fill="black"/>
</svg>
