<svg width="379" height="494" viewBox="0 0 379 494" fill="none" xmlns="http://www.w3.org/2000/svg">
<path d="M136 3.5C73.6 27.9 46.6667 44.6667 41 50C27.4 58.9062 14 123.044 9.00001 154C9.00001 164.5 3 228.3 3 246.5C3 258.5 43.3333 254.333 58 251C58 273.5 49.2 338.7 54 339.5C57.5 388 56 428.167 54 472C86.5 502.5 171.1 488.2 199.5 479C227.9 469.8 300 470.5 332.5 472V251C346.5 257 376 251.7 376 242.5C365 69 343 57.5 340.5 53.5C340.5 39.9 272.167 15.5 238 5C229.5 39.5 200.6 41 189 41C133.5 36.5 146.5 6 136 3.5Z" fill="black" stroke="white" stroke-width="5"/>
<path d="M113.5 33C123.667 46.8333 153.9 75.4 193.5 79" stroke="white" stroke-width="2"/>
<path d="M339.654 50.1424C339.715 50.6887 340.502 51.4053 340.756 51.8863C341.169 52.6715 341.69 53.3668 342.224 54.0687C342.997 55.0845 344.796 58.4658 344.284 57.2964C344.117 56.9137 343.92 56.5985 343.693 56.2511C343.351 55.7285 343.201 55.1049 342.912 54.5531C342.547 53.8537 341.961 53.283 341.536 52.6206C341.287 52.2331 341.097 51.8294 340.801 51.4682C340.608 51.2323 340.455 50.6014 340.113 50.6014" stroke="white" stroke-width="2" stroke-linecap="round"/>
<path d="M53.266 324.915C53.266 325.84 53.2324 326.769 53.3143 327.691C53.3613 328.22 53.314 328.76 53.3733 329.286C53.4144 329.651 53.3766 330.027 53.4349 330.389C53.4944 330.757 53.5022 331.155 53.5074 331.528C53.5144 332.032 53.6249 332.539 53.6495 333.044C53.6814 333.697 53.797 334.352 53.797 335.007C53.797 335.922 54.1349 336.797 54.1349 337.707C54.1349 338.139 54.2797 338.575 54.2797 339.01" stroke="white" stroke-width="2" stroke-linecap="round"/>
<path d="M52.8798 327.522C52.8798 326.501 52.8251 329.573 52.9656 330.584C53.0803 331.41 53.1629 332.243 53.2633 333.07C53.3264 333.591 53.4443 334.127 53.459 334.65C53.4954 335.941 53.6635 337.161 54.0115 338.404C54.0664 338.601 54.0944 338.792 54.1375 338.986C54.1513 339.048 54.2797 339.39 54.2797 339.203C54.2797 338.841 54.2797 338.479 54.2797 338.117C54.2797 337.856 54.3647 337.395 54.2555 337.155C54.1903 337.011 54.198 336.754 54.1804 336.597C54.1537 336.356 54.0519 336.111 54.0383 335.873C53.9987 335.179 53.7318 334.462 53.5797 333.786C53.4614 333.26 53.3696 332.719 53.2767 332.188C53.1034 331.197 53.2177 330.118 53.2177 329.115C53.2177 328.73 53.2177 328.346 53.2177 327.962C53.2177 327.625 53.186 327.686 52.8798 327.618" stroke="white" stroke-width="2" stroke-linecap="round"/>
<path d="M54.464 326.62C54.4979 326.852 54.5275 327.085 54.5508 327.321C54.6181 328.001 54.5968 328.724 54.5913 329.446C54.5971 329.537 54.6029 329.629 54.6088 329.72C54.6712 330.137 54.6906 330.567 54.6946 330.941C54.6951 330.992 54.6959 331.044 54.697 331.095C54.7062 331.246 54.7152 331.396 54.7239 331.547C54.7421 331.642 54.7627 331.737 54.7861 331.83C54.9359 332.429 54.8122 333.178 54.8122 333.797C54.8122 333.829 54.8124 333.861 54.8127 333.893C54.8229 334.725 54.9839 335.524 55.1362 336.323C55.1401 336.343 55.1439 336.363 55.1476 336.383C55.2622 336.987 55.3695 337.59 55.4004 338.208C55.4219 338.64 55.2887 337.962 55.2827 337.855C55.2565 337.383 55.2349 336.859 55.1476 336.383C55.1438 336.363 55.14 336.343 55.1362 336.323C55.125 336.266 55.1129 336.211 55.0997 336.156C54.9232 335.425 54.8207 334.65 54.8127 333.893C54.8124 333.865 54.8122 333.838 54.8122 333.81C54.8122 333.548 54.804 333.284 54.7919 333.021C54.7682 332.503 54.7295 331.983 54.7085 331.463C54.6038 330.868 54.5881 330.239 54.5904 329.605C54.5413 329.318 54.4702 329.041 54.3678 328.798C54.2103 328.424 54.3574 327.847 54.2828 327.445C54.19 326.943 54.224 326.424 54.224 325.915C54.224 325.717 54.2291 325.516 54.2371 325.314C54.2677 324.541 54.3417 323.751 54.3417 323.033C54.3417 322.722 54.4593 322.581 54.4593 322.975C54.4593 323.436 54.5769 323.909 54.5769 324.386C54.5769 324.996 54.4593 325.477 54.4593 326.066C54.4593 326.251 54.4609 326.436 54.464 326.62Z" fill="black"/>
<path d="M53.9888 336.208C54.0557 336.845 54.5622 337.574 54.7599 338.195C55.0007 338.952 55.0475 338.7 55.0475 338.091C55.0475 337.775 55.1721 337.171 54.9298 336.914C54.7038 336.675 54.4718 336.414 54.4593 336.065C54.4206 334.982 54.3417 333.928 54.3417 332.843C54.3417 331.699 53.9084 330.566 53.8711 329.412C53.842 328.508 53.8711 327.597 53.8711 326.693C53.8711 325.945 53.7868 325.123 53.9953 324.393C54.0461 324.215 54.1766 324.999 54.1783 325.007C54.3261 325.779 54.4733 326.537 54.5508 327.321C54.6945 328.773 54.4344 330.423 54.7861 331.83C54.9359 332.429 54.8122 333.178 54.8122 333.797C54.8122 334.585 54.9158 335.394 55.0997 336.156C55.228 336.687 55.2523 337.307 55.2827 337.855C55.2887 337.962 55.4219 338.64 55.4004 338.208C55.3262 336.726 54.8122 335.323 54.8122 333.81C54.8122 332.859 54.7046 331.899 54.6946 330.941C54.6875 330.273 54.631 329.423 54.3678 328.798C54.2103 328.424 54.3574 327.847 54.2828 327.445C54.19 326.943 54.224 326.424 54.224 325.915C54.224 324.958 54.3417 323.938 54.3417 323.033C54.3417 322.722 54.4593 322.581 54.4593 322.975C54.4593 323.436 54.5769 323.909 54.5769 324.386C54.5769 324.996 54.4593 325.477 54.4593 326.066C54.4593 328.783 54.8122 331.488 54.8122 334.209" stroke="white" stroke-width="2" stroke-linecap="round"/>
<path d="M118 11.5C118.333 28.3333 133.9 62.1 193.5 62.5C219.5 62.5 251 44.5 258 11.5" stroke="white" stroke-width="4"/>
<path d="M37.5 53C32 85.5 43 148 51.5 176C58.3 198.4 60 235 59.5 251C61.1667 208.167 63.5 118.4 59.5 102M331 251L327 176C333.667 151 346.1 91.4 342.5 53M229 473C220 472 179.8 475.2 141 480C129 481 102.333 478.333 89.5 476.5" stroke="white" stroke-width="2"/>
<path d="M52 339C56.8333 360.833 66.8 406.7 68 441.5" stroke="white" stroke-width="2"/>
<path d="M321.5 95.5C320.667 129.667 318.6 204 317 228C315 258 321.5 278 321.5 329.5C321.5 370.7 302.167 414.333 292.5 431" stroke="white" stroke-width="2"/>
<path d="M234.5 4.5C200 12.5 176 13.5 138.5 3.5C139.167 7.16667 141.8 17.2 151 28C160.2 38.8 180.5 40.5 189.5 40C233.5 37.5 234.5 10.5 234.5 4.5Z" fill="black" stroke="white" stroke-width="4"/>
</svg>
