<svg width="375" height="490" viewBox="0 0 375 490" fill="none" xmlns="http://www.w3.org/2000/svg">
<path d="M134 1.5C71.6 25.9 44.6667 42.6667 39 48C25.4 56.9062 12 121.044 7.00001 152C7.00001 162.5 1 226.3 1 244.5C1 256.5 41.3333 252.333 56 249C56 271.5 47.2 336.7 52 337.5C55.5 386 54 426.167 52 470C84.5 500.5 169.1 486.2 197.5 477C225.9 467.8 298 468.5 330.5 470V249C344.5 255 374 249.7 374 240.5C363 67 341 55.5 338.5 51.5C338.5 37.9 270.167 13.5 236 3C227.5 37.5 198.6 39 187 39C131.5 34.5 144.5 4 134 1.5Z" fill="#BB3939"/>
<path d="M52.464 324.62C52.498 324.852 52.5275 325.085 52.5508 325.321C52.6181 326.001 52.5968 326.724 52.5913 327.446C52.5971 327.537 52.6029 327.629 52.6088 327.72C52.6712 328.137 52.6906 328.567 52.6946 328.941C52.6951 328.992 52.6959 329.044 52.697 329.095C52.7062 329.246 52.7152 329.396 52.7239 329.547C52.7421 329.642 52.7627 329.737 52.786 329.83C52.9359 330.429 52.8122 331.178 52.8122 331.797C52.8122 331.829 52.8124 331.861 52.8127 331.893C52.8229 332.725 52.9839 333.524 53.1362 334.323C53.1401 334.343 53.1439 334.363 53.1476 334.383C53.2622 334.987 53.3695 335.59 53.4004 336.208C53.4219 336.64 53.2887 335.962 53.2827 335.855C53.2565 335.383 53.2349 334.859 53.1476 334.383C53.1439 334.363 53.1401 334.343 53.1362 334.323C53.125 334.266 53.1129 334.211 53.0997 334.156C52.9232 333.425 52.8207 332.65 52.8127 331.893C52.8124 331.865 52.8122 331.838 52.8122 331.81C52.8122 331.548 52.804 331.284 52.7919 331.021C52.7682 330.503 52.7295 329.983 52.7085 329.463C52.6038 328.868 52.588 328.239 52.5904 327.605C52.5413 327.318 52.4702 327.041 52.3678 326.798C52.2103 326.424 52.3574 325.847 52.2828 325.445C52.19 324.943 52.224 324.424 52.224 323.915C52.224 323.717 52.2291 323.516 52.2371 323.314C52.2677 322.541 52.3417 321.751 52.3417 321.033C52.3417 320.722 52.4593 320.581 52.4593 320.975C52.4593 321.436 52.5769 321.909 52.5769 322.386C52.5769 322.996 52.4593 323.477 52.4593 324.066C52.4593 324.251 52.4609 324.436 52.464 324.62Z" fill="#BB3939"/>
<path d="M39 48L39.5478 48.8366L39.6214 48.7884L39.6854 48.7282L39 48ZM134 1.5L134.232 0.527194L133.927 0.454721L133.636 0.568669L134 1.5ZM187 39L186.919 39.9967L186.96 40H187V39ZM236 3L236.294 2.04412L235.282 1.73325L235.029 2.76078L236 3ZM338.5 51.5H337.5V51.7868L337.652 52.03L338.5 51.5ZM374 240.5H375V240.468L374.998 240.437L374 240.5ZM330.5 249L330.894 248.081L329.5 247.483V249H330.5ZM330.5 470L330.454 470.999L331.5 471.047V470H330.5ZM52 470L51.001 469.954L50.9801 470.414L51.3157 470.729L52 470ZM52 337.5L52.9974 337.428L52.9408 336.643L52.1644 336.514L52 337.5ZM56 249H57V247.747L55.7784 248.025L56 249ZM1 244.5L0 244.5V244.5H1ZM7.00001 152L6.0128 151.841L6.00001 151.92V152H7.00001ZM338.648 48.032C338.587 47.4831 338.093 47.0876 337.544 47.1486C336.995 47.2095 336.599 47.704 336.66 48.2529L338.648 48.032ZM338.756 49.8863L339.64 49.4206L339.64 49.4206L338.756 49.8863ZM340.224 52.0687L341.02 51.4632L340.224 52.0687ZM342.284 55.2964L343.2 54.8956L343.2 54.8956L342.284 55.2964ZM341.693 54.2511L342.529 53.7035L342.529 53.7035L341.693 54.2511ZM340.912 52.5531L340.026 53.0164L340.026 53.0164L340.912 52.5531ZM339.536 50.6206L340.377 50.0798L340.377 50.0798L339.536 50.6206ZM338.801 49.4682L338.027 50.1014L338.027 50.1014L338.801 49.4682ZM338.113 47.6014C337.561 47.6014 337.113 48.0491 337.113 48.6014C337.113 49.1536 337.561 49.6014 338.113 49.6014V47.6014ZM52.266 322.915C52.266 322.363 51.8183 321.915 51.266 321.915C50.7137 321.915 50.266 322.363 50.266 322.915H52.266ZM51.3143 325.691L52.3103 325.602L52.3103 325.602L51.3143 325.691ZM51.3733 327.286L50.3796 327.398L51.3733 327.286ZM51.4349 328.389L50.4477 328.548L50.4477 328.548L51.4349 328.389ZM51.5074 329.528L52.5073 329.514L51.5074 329.528ZM51.6495 331.044L52.6483 330.995L51.6495 331.044ZM51.2797 337.01C51.2797 337.563 51.7274 338.01 52.2797 338.01C52.832 338.01 53.2797 337.563 53.2797 337.01H51.2797ZM49.8798 325.522C49.8798 326.074 50.3275 326.522 50.8798 326.522C51.4321 326.522 51.8798 326.074 51.8798 325.522H49.8798ZM50.9656 328.584L51.9561 328.447L50.9656 328.584ZM51.2633 331.07L50.2705 331.191L50.2705 331.191L51.2633 331.07ZM51.459 332.65L52.4587 332.622L52.4587 332.622L51.459 332.65ZM52.0115 336.404L51.0485 336.674L51.0485 336.674L52.0115 336.404ZM52.1375 336.986L53.1137 336.769L53.1137 336.769L52.1375 336.986ZM52.2555 335.155L53.1659 334.741L53.1659 334.741L52.2555 335.155ZM52.1804 334.597L51.1865 334.707L51.1865 334.707L52.1804 334.597ZM52.0383 333.873L53.0367 333.816L53.0367 333.816L52.0383 333.873ZM51.5797 331.786L52.5553 331.567L52.5553 331.567L51.5797 331.786ZM51.2767 330.188L52.2618 330.016L52.2618 330.016L51.2767 330.188ZM51.0967 324.642C50.5576 324.522 50.0234 324.862 49.9036 325.402C49.7838 325.941 50.1237 326.475 50.6629 326.595L51.0967 324.642ZM52.9833 334.104C52.9254 333.555 52.4333 333.156 51.8841 333.214C51.3348 333.272 50.9364 333.764 50.9942 334.313L52.9833 334.104ZM52.7599 336.195L51.807 336.498L51.807 336.498L52.7599 336.195ZM52.9298 334.914L52.2028 335.601L52.2028 335.601L52.9298 334.914ZM52.4593 334.065L51.4599 334.1L51.4599 334.1L52.4593 334.065ZM51.8711 327.412L52.8706 327.38L51.8711 327.412ZM51.9953 322.393L51.0338 322.118L51.0338 322.118L51.9953 322.393ZM52.1783 323.007L53.1604 322.819L53.1604 322.819L52.1783 323.007ZM52.5508 325.321L53.5459 325.222L53.5459 325.222L52.5508 325.321ZM52.786 329.83L53.7562 329.587L53.7562 329.587L52.786 329.83ZM53.0997 334.156L54.0718 333.921L54.0718 333.921L53.0997 334.156ZM53.2827 335.855L54.2812 335.8L54.2812 335.8L53.2827 335.855ZM53.4004 336.208L54.3991 336.158L53.4004 336.208ZM52.6946 328.941L53.6945 328.931L53.6945 328.931L52.6946 328.941ZM52.3678 326.798L51.4462 327.186L51.4462 327.186L52.3678 326.798ZM52.2828 325.445L51.2996 325.627L51.2996 325.627L52.2828 325.445ZM51.8122 332.209C51.8122 332.761 52.2599 333.209 52.8122 333.209C53.3645 333.209 53.8122 332.761 53.8122 332.209H51.8122ZM191.5 60.5L191.493 61.5H191.5V60.5ZM57.5 249L56.5005 248.969L58.4993 249.039L57.5 249ZM49.5 174L48.5431 174.29L48.5431 174.29L49.5 174ZM325 174L324.034 173.742L323.993 173.895L324.001 174.053L325 174ZM139 478L139.083 478.997L139.103 478.995L139.123 478.992L139 478ZM315 226L314.002 225.933L314.002 225.933L315 226ZM4.94565 236.796C5.49367 236.864 5.99346 236.476 6.06196 235.928C6.13046 235.38 5.74174 234.88 5.19372 234.811L4.94565 236.796ZM4.25905 235.051L4.96616 234.344L4.96616 234.344L4.25905 235.051ZM3.32104 234.136L2.46776 234.658L2.46776 234.658L3.32104 234.136ZM2.35986 232.302C1.80758 232.302 1.35986 232.75 1.35986 233.302C1.35986 233.855 1.80758 234.302 2.35986 234.302V232.302ZM7.69506 235.71C7.15168 235.611 6.6311 235.971 6.5323 236.515C6.43351 237.058 6.79391 237.579 7.33729 237.677L7.69506 235.71ZM7.96627 236.919L7.42939 237.762L7.42939 237.762L7.96627 236.919ZM10.0267 237.599L9.77457 238.566L10.0267 237.599ZM11.252 237.771L11.3624 236.777L11.3624 236.777L11.252 237.771ZM12.2903 236.754C11.8266 236.454 11.2075 236.587 10.9075 237.051C10.6075 237.514 10.7401 238.133 11.2038 238.433L12.2903 236.754ZM14.8823 237.291C14.3422 237.175 13.8106 237.519 13.6949 238.059C13.5792 238.599 13.9232 239.131 14.4632 239.247L14.8823 237.291ZM16.058 238.549L16.2409 237.566L16.058 238.549ZM17.4533 238.664L17.1692 239.623L17.1692 239.623L17.4533 238.664ZM18.0092 239.256C18.2562 239.75 18.8568 239.95 19.3508 239.703C19.8448 239.457 20.045 238.856 19.798 238.362L18.0092 239.256ZM39.6854 48.7282C42.408 46.1657 50.4466 40.6946 65.6855 32.7876C80.8896 24.8988 103.19 14.6214 134.364 2.43133L133.636 0.568669C102.41 12.7786 80.0438 23.0845 64.7644 31.0124C49.5201 38.9221 41.2586 44.501 38.3146 47.2718L39.6854 48.7282ZM133.768 2.47281C135.799 2.95633 136.815 4.76605 137.96 8.10557C139.058 11.3075 140.196 15.6432 142.763 20.007C147.983 28.881 158.97 37.7306 186.919 39.9967L187.081 38.0033C159.53 35.7694 149.267 27.119 144.487 18.993C142.054 14.8568 141.004 10.8175 139.852 7.45693C138.747 4.23395 137.451 1.29367 134.232 0.527194L133.768 2.47281ZM187 40C192.833 40 203.147 39.6277 213.096 34.8385C223.097 30.0242 232.648 20.7847 236.971 3.23922L235.029 2.76078C230.852 19.7153 221.703 28.4758 212.229 33.0365C202.702 37.6223 192.766 38 187 38V40ZM235.706 3.95588C252.77 9.19982 278.359 17.9132 299.67 27.0073C310.331 31.5566 319.883 36.1854 326.757 40.5075C330.197 42.6706 332.924 44.7315 334.78 46.6393C336.666 48.5778 337.5 50.2028 337.5 51.5H339.5C339.5 49.3972 338.198 47.2847 336.214 45.2447C334.199 43.174 331.322 41.0154 327.821 38.8144C320.815 34.4084 311.148 29.7309 300.455 25.1677C279.058 16.0368 253.397 7.30018 236.294 2.04412L235.706 3.95588ZM337.652 52.03C337.856 52.3563 338.139 52.6916 338.435 53.0318C338.747 53.3901 339.101 53.786 339.523 54.293C340.356 55.2938 341.432 56.706 342.695 58.8312C345.225 63.0885 348.524 70.2378 352.101 82.7132C359.259 107.674 367.504 153.841 373.002 240.563L374.998 240.437C369.496 153.659 361.241 107.326 354.024 82.1618C350.414 69.5747 347.056 62.2552 344.414 57.8095C343.091 55.583 341.952 54.0851 341.061 53.0136C340.62 52.4845 340.235 52.0538 339.944 51.7194C339.638 51.367 339.457 51.1437 339.348 50.97L337.652 52.03ZM373 240.5C373 242.227 371.595 244.025 368.678 245.684C365.823 247.307 361.815 248.617 357.314 249.467C348.284 251.174 337.636 250.97 330.894 248.081L330.106 249.919C337.364 253.03 348.466 253.176 357.686 251.433C362.31 250.558 366.552 249.193 369.666 247.422C372.717 245.688 375 243.373 375 240.5H373ZM329.5 249V470H331.5V249H329.5ZM330.546 469.001C314.276 468.25 288.099 467.7 262.432 468.488C236.808 469.275 211.546 471.399 197.192 476.049L197.808 477.951C211.854 473.401 236.842 471.275 262.493 470.487C288.101 469.7 314.224 470.25 330.454 470.999L330.546 469.001ZM197.192 476.049C183.082 480.619 154.925 486.478 126.256 487.388C111.925 487.843 97.503 487.059 84.6633 484.277C71.8151 481.494 60.6281 476.726 52.6843 469.271L51.3157 470.729C59.6219 478.524 71.1974 483.406 84.2398 486.232C97.2907 489.06 111.887 489.845 126.319 489.387C155.175 488.472 183.518 482.581 197.808 477.951L197.192 476.049ZM52.999 470.046C54.9992 426.208 56.5019 385.991 52.9974 337.428L51.0026 337.572C54.4981 386.009 53.0008 426.126 51.001 469.954L52.999 470.046ZM52.1644 336.514C52.4489 336.561 52.3781 336.767 52.1893 336.268C52.0337 335.856 51.8934 335.2 51.7872 334.276C51.5766 332.444 51.525 329.799 51.5997 326.521C51.749 319.978 52.3965 311.078 53.1965 301.47C54.7925 282.307 57 260.305 57 249H55C55 260.195 52.8075 282.043 51.2034 301.305C50.4035 310.91 49.751 319.865 49.6003 326.476C49.525 329.774 49.5734 332.531 49.8003 334.505C49.9128 335.484 50.0756 336.333 50.3185 336.975C50.5282 337.53 50.9511 338.339 51.8356 338.486L52.1644 336.514ZM55.7784 248.025C48.5129 249.676 34.8385 251.541 23.0035 251.5C17.0754 251.479 11.6944 250.979 7.82769 249.779C3.88186 248.555 2 246.78 2 244.5H0C0 248.22 3.15981 250.425 7.23481 251.689C11.389 252.979 17.0079 253.479 22.9965 253.5C34.9948 253.542 48.8204 251.657 56.2216 249.975L55.7784 248.025ZM2 244.5C2 235.448 3.49543 214.998 4.99707 195.439C6.49397 175.942 8.00001 157.301 8.00001 152H6.00001C6.00001 157.199 4.50604 175.708 3.00294 195.286C1.50457 214.802 7.27073e-07 235.351 0 244.5L2 244.5ZM7.98721 152.159C10.4836 136.704 15.077 112.966 20.7404 91.9921C23.5728 81.5024 26.6657 71.731 29.8879 64.0406C31.4993 60.195 33.1337 56.8923 34.7718 54.2887C36.4199 51.6692 38.0246 49.8341 39.5478 48.8366L38.4521 47.1634C36.5754 48.3925 34.7864 50.5099 33.079 53.2236C31.3616 55.9532 29.6789 59.3643 28.0433 63.2677C24.7718 71.0755 21.6522 80.9432 18.8096 91.4708C13.123 112.531 8.51646 136.34 6.0128 151.841L7.98721 152.159ZM110.694 31.5922C120.954 45.5525 151.417 74.3602 191.409 77.9959L191.591 76.0041C152.383 72.4398 122.379 44.1141 112.306 30.4078L110.694 31.5922ZM134.543 2.38929C143.406 6.94736 159.081 12.3848 177.426 13.9713C195.779 15.5584 216.867 13.2959 236.486 2.37373L235.514 0.626268C216.333 11.3041 195.671 13.5416 177.599 11.9787C159.519 10.4152 144.094 5.05264 135.457 0.610712L134.543 2.38929ZM336.66 48.2529C336.697 48.5852 336.832 48.8705 336.947 49.0728C337.068 49.2844 337.213 49.4831 337.339 49.6478C337.404 49.7319 337.469 49.8143 337.528 49.8888C337.589 49.9655 337.643 50.0331 337.693 50.0978C337.8 50.2364 337.85 50.3135 337.871 50.3521L339.64 49.4206C339.534 49.2186 339.392 49.0258 339.277 48.8776C339.217 48.799 339.153 48.719 339.095 48.6456C339.035 48.5699 338.979 48.4995 338.926 48.4299C338.816 48.287 338.737 48.1741 338.685 48.0827C338.628 47.9819 338.641 47.9729 338.648 48.032L336.66 48.2529ZM337.871 50.3521C338.328 51.2206 338.898 51.9772 339.428 52.6742L341.02 51.4632C340.482 50.7564 340.01 50.1224 339.64 49.4206L337.871 50.3521ZM339.428 52.6742C339.768 53.1206 340.373 54.1506 340.872 55.0062C341.105 55.4059 341.322 55.778 341.447 55.9707C341.475 56.0143 341.521 56.0848 341.572 56.1482C341.575 56.151 341.669 56.2763 341.822 56.3759C341.87 56.4071 341.963 56.4621 342.091 56.4994C342.221 56.5369 342.451 56.5743 342.714 56.4789C343.301 56.2652 343.363 55.7015 343.369 55.6338C343.383 55.493 343.364 55.3818 343.358 55.349C343.349 55.3003 343.338 55.2605 343.331 55.2362C343.317 55.187 343.301 55.1428 343.29 55.1123C343.266 55.0482 343.234 54.9739 343.2 54.8956L341.368 55.6973C341.398 55.7651 341.412 55.8014 341.418 55.8158C341.421 55.8245 341.416 55.8115 341.408 55.7859C341.405 55.7733 341.396 55.7434 341.389 55.7027C341.385 55.6779 341.365 55.5729 341.379 55.4364C341.385 55.3731 341.445 54.812 342.03 54.5992C342.292 54.5042 342.521 54.5415 342.649 54.5786C342.776 54.6154 342.867 54.6695 342.913 54.6994C343.004 54.7589 343.063 54.8194 343.079 54.8367C343.104 54.862 343.121 54.8824 343.128 54.8914C343.15 54.9181 343.153 54.9265 343.127 54.8858C343.034 54.7417 342.848 54.4243 342.599 53.9978C342.134 53.2012 341.453 52.0326 341.02 51.4632L339.428 52.6742ZM343.2 54.8956C342.998 54.4324 342.762 54.0593 342.529 53.7035L340.856 54.7988C341.078 55.1378 341.236 55.3951 341.368 55.6973L343.2 54.8956ZM342.529 53.7035C342.417 53.5318 342.325 53.3255 342.211 53.0413C342.107 52.7835 341.973 52.4234 341.799 52.0899L340.026 53.0164C340.14 53.2347 340.225 53.4622 340.354 53.7849C340.473 54.081 340.626 54.4479 340.856 54.7988L342.529 53.7035ZM341.799 52.0899C341.57 51.6525 341.282 51.2732 341.034 50.9561C340.769 50.6179 340.557 50.3604 340.377 50.0798L338.694 51.1613C338.94 51.5432 339.234 51.9023 339.46 52.1899C339.702 52.4986 339.889 52.7544 340.026 53.0164L341.799 52.0899ZM340.377 50.0798C340.264 49.905 340.182 49.7529 340.046 49.524C339.922 49.3155 339.771 49.0737 339.575 48.835L338.027 50.1014C338.128 50.2239 338.219 50.3645 338.326 50.5451C338.421 50.7052 338.558 50.9487 338.694 51.1613L340.377 50.0798ZM339.575 48.835C339.604 48.8704 339.602 48.8783 339.552 48.7805C339.522 48.721 339.451 48.5742 339.385 48.4563C339.317 48.3357 339.202 48.1475 339.03 47.9821C338.846 47.8059 338.538 47.6014 338.113 47.6014V49.6014C337.859 49.6014 337.698 49.4757 337.645 49.4251C337.604 49.3854 337.604 49.3697 337.641 49.4363C337.68 49.5056 337.705 49.5608 337.769 49.6859C337.795 49.7384 337.829 49.8032 337.868 49.8688C337.905 49.9326 337.958 50.0166 338.027 50.1014L339.575 48.835ZM50.266 322.915C50.266 323.791 50.2311 324.799 50.3182 325.779L52.3103 325.602C52.2336 324.739 52.266 323.889 52.266 322.915H50.266ZM50.3182 325.779C50.3373 325.994 50.3377 326.215 50.3392 326.495C50.3406 326.759 50.3432 327.075 50.3796 327.398L52.367 327.175C52.3441 326.972 52.3407 326.755 52.3392 326.485C52.3378 326.231 52.3383 325.917 52.3103 325.602L50.3182 325.779ZM50.3796 327.398C50.3934 327.522 50.3944 327.65 50.3978 327.855C50.4007 328.038 50.4058 328.288 50.4477 328.548L52.4222 328.229C52.4057 328.127 52.4005 328.008 52.3975 327.823C52.3949 327.658 52.3942 327.416 52.367 327.175L50.3796 327.398ZM50.4477 328.548C50.4938 328.833 50.5021 329.16 50.5074 329.542L52.5073 329.514C52.5022 329.15 52.495 328.681 52.4222 328.229L50.4477 328.548ZM50.5074 329.542C50.5118 329.856 50.5481 330.158 50.5795 330.41C50.613 330.678 50.6406 330.887 50.6507 331.092L52.6483 330.995C52.6337 330.696 52.5938 330.399 52.5641 330.162C52.5323 329.908 52.5099 329.705 52.5073 329.514L50.5074 329.542ZM50.6507 331.092C50.6682 331.452 50.7091 331.815 50.7402 332.125C50.7728 332.449 50.797 332.733 50.797 333.007H52.797C52.797 332.625 52.7634 332.255 52.7302 331.925C52.6955 331.58 52.6626 331.289 52.6483 330.995L50.6507 331.092ZM50.797 333.007C50.797 333.573 50.9017 334.113 50.9833 334.545C51.0708 335.008 51.1349 335.362 51.1349 335.707H53.1349C53.1349 335.143 53.03 334.604 52.9485 334.173C52.8612 333.711 52.797 333.355 52.797 333.007H50.797ZM51.1349 335.707C51.1349 336.02 51.1872 336.32 51.2209 336.522C51.2595 336.753 51.2797 336.889 51.2797 337.01H53.2797C53.2797 336.696 53.2275 336.396 53.1937 336.193C53.1549 335.96 53.1349 335.826 53.1349 335.707H51.1349ZM51.8798 325.522C51.8798 325.436 51.8806 325.294 51.8724 325.215C51.8717 325.209 51.8664 325.153 51.8503 325.085C51.8478 325.075 51.8197 324.942 51.7326 324.799C51.6685 324.705 51.4385 324.489 51.2595 324.393C50.9762 324.322 50.4564 324.41 50.2526 324.536C50.1513 324.629 50.021 324.8 49.9835 324.868C49.9631 324.911 49.9337 324.985 49.9237 325.016C49.9054 325.073 49.8966 325.12 49.8934 325.137C49.8861 325.177 49.8829 325.209 49.8819 325.218C49.8779 325.257 49.8767 325.293 49.8765 325.299C49.8753 325.329 49.8744 325.368 49.8736 325.409C49.8705 325.579 49.8681 325.907 49.87 326.296C49.8738 327.046 49.8939 328.137 49.9751 328.722L51.9561 328.447C51.8968 328.02 51.874 327.07 51.87 326.286C51.8681 325.908 51.8705 325.596 51.8733 325.446C51.874 325.407 51.8746 325.386 51.8749 325.378C51.8754 325.365 51.8749 325.389 51.8716 325.421C51.8708 325.429 51.8677 325.459 51.8606 325.498C51.8575 325.515 51.8487 325.561 51.8306 325.619C51.8206 325.649 51.7912 325.722 51.7708 325.766C51.7334 325.834 51.6032 326.005 51.5019 326.098C51.2981 326.224 50.7784 326.312 50.4951 326.241C50.3162 326.144 50.0862 325.928 50.0221 325.835C49.9351 325.691 49.9071 325.559 49.9047 325.549C49.8887 325.482 49.8836 325.427 49.8831 325.422C49.8773 325.367 49.8798 325.353 49.8798 325.522H51.8798ZM49.9751 328.722C50.0887 329.539 50.1663 330.331 50.2705 331.191L52.256 330.95C52.1595 330.154 52.0719 329.281 51.9561 328.447L49.9751 328.722ZM50.2705 331.191C50.3508 331.853 50.4462 332.207 50.4594 332.678L52.4587 332.622C52.4425 332.047 52.3019 331.329 52.256 330.95L50.2705 331.191ZM50.4594 332.678C50.4979 334.042 50.6761 335.344 51.0485 336.674L52.9744 336.135C52.6509 334.979 52.493 333.841 52.4587 332.622L50.4594 332.678ZM51.0485 336.674C51.0969 336.847 51.095 336.904 51.1613 337.203L53.1137 336.769C53.0939 336.68 53.0359 336.354 52.9744 336.135L51.0485 336.674ZM51.1613 337.203C51.1901 337.333 51.2581 337.509 51.3136 337.624C51.3306 337.659 51.3593 337.715 51.3985 337.776C51.4181 337.806 51.4506 337.854 51.4959 337.906C51.5326 337.948 51.6252 338.049 51.7746 338.132C51.9333 338.219 52.271 338.343 52.6577 338.179C53.0067 338.031 53.149 337.749 53.1953 337.639C53.2842 337.429 53.2797 337.234 53.2797 337.203H51.2797C51.2797 337.19 51.2801 337.156 51.2856 337.111C51.29 337.075 51.3035 336.978 51.3529 336.861C51.3957 336.76 51.5337 336.483 51.8777 336.337C52.2595 336.175 52.5916 336.298 52.7441 336.382C52.8874 336.462 52.9734 336.557 53.003 336.591C53.0413 336.635 53.0663 336.672 53.0781 336.69C53.1018 336.727 53.1138 336.752 53.1139 336.752C53.116 336.757 53.1111 336.746 53.1036 336.726C53.0903 336.69 53.1011 336.713 53.1137 336.769L51.1613 337.203ZM53.2797 337.203V336.117H51.2797V337.203H53.2797ZM53.2797 336.117C53.2797 336.095 53.2818 336.054 53.2884 335.965C53.2941 335.89 53.3029 335.78 53.3076 335.671C53.3148 335.503 53.3307 335.103 53.1659 334.741L51.3452 335.568C51.3074 335.485 51.3071 335.435 51.3094 335.46C51.3111 335.478 51.3124 335.517 51.3094 335.585C51.3065 335.654 51.3009 335.724 51.294 335.816C51.2881 335.895 51.2797 336.009 51.2797 336.117H53.2797ZM53.1659 334.741C53.1819 334.776 53.1908 334.804 53.1952 334.819C53.1997 334.835 53.2015 334.844 53.2017 334.845C53.2018 334.846 53.1995 334.833 53.1967 334.799C53.1938 334.764 53.1919 334.728 53.1888 334.673C53.1862 334.628 53.1821 334.556 53.1743 334.486L51.1865 334.707C51.1875 334.716 51.1891 334.736 51.192 334.787C51.1944 334.829 51.1979 334.897 51.2035 334.964C51.212 335.067 51.2337 335.323 51.3452 335.568L53.1659 334.741ZM53.1743 334.486C53.1517 334.283 53.0984 334.086 53.0742 333.99C53.0592 333.93 53.05 333.892 53.0436 333.859C53.0374 333.828 53.0367 333.816 53.0367 333.816L51.0399 333.93C51.0529 334.156 51.1059 334.364 51.1347 334.478C51.1715 334.624 51.1824 334.67 51.1865 334.707L53.1743 334.486ZM53.0367 333.816C53.0111 333.369 52.9144 332.94 52.8193 332.572C52.7137 332.164 52.628 331.89 52.5553 331.567L50.6041 332.006C50.6835 332.359 50.8073 332.781 50.8831 333.073C50.9693 333.406 51.0258 333.683 51.0399 333.93L53.0367 333.816ZM52.5553 331.567C52.4435 331.07 52.3563 330.556 52.2618 330.016L50.2916 330.36C50.3829 330.882 50.4792 331.451 50.6041 332.006L52.5553 331.567ZM52.2618 330.016C52.1911 329.612 52.1755 329.167 52.1821 328.669C52.1879 328.238 52.2177 327.594 52.2177 327.115H50.2177C50.2177 327.639 50.1904 328.036 50.1823 328.643C50.1751 329.183 50.189 329.773 50.2916 330.36L52.2618 330.016ZM52.2177 327.115V325.962H50.2177V327.115H52.2177ZM52.2177 325.962C52.2177 325.887 52.2181 325.741 52.1919 325.597C52.1601 325.422 52.0668 325.12 51.7693 324.894C51.5395 324.719 51.2885 324.679 51.2543 324.672C51.1444 324.651 51.1675 324.658 51.0967 324.642L50.6629 326.595C50.7188 326.607 50.7667 326.616 50.8036 326.623C50.8502 326.631 50.8549 326.632 50.8693 326.635C50.8801 326.637 50.8494 326.632 50.8041 326.616C50.7555 326.6 50.6608 326.563 50.5578 326.485C50.4464 326.4 50.3609 326.294 50.3028 326.181C50.2503 326.079 50.2312 325.994 50.2241 325.954C50.2134 325.895 50.2177 325.868 50.2177 325.962H52.2177ZM50.9942 334.313C51.0474 334.818 51.263 335.298 51.4204 335.633C51.6088 336.033 51.7346 336.271 51.807 336.498L53.7128 335.892C53.5875 335.498 53.3612 335.06 53.2302 334.782C53.0682 334.437 52.9971 334.235 52.9833 334.104L50.9942 334.313ZM51.807 336.498C51.8687 336.692 51.9384 336.89 52.0199 337.047C52.0468 337.098 52.1441 337.287 52.3363 337.44C52.4446 337.525 52.6702 337.668 52.9897 337.664C53.3367 337.659 53.5854 337.486 53.7237 337.339C53.936 337.112 53.9874 336.847 53.9959 336.809C54.0172 336.714 54.0272 336.622 54.0329 336.554C54.0447 336.413 54.0475 336.248 54.0475 336.091H52.0475C52.0475 336.237 52.0444 336.333 52.0399 336.387C52.0374 336.416 52.0367 336.406 52.044 336.373C52.0477 336.356 52.0579 336.314 52.0803 336.258C52.099 336.211 52.1505 336.093 52.2642 335.971C52.3921 335.835 52.6295 335.668 52.9641 335.664C53.2712 335.66 53.4833 335.797 53.5771 335.871C53.6739 335.948 53.7297 336.023 53.7505 336.053C53.7755 336.088 53.7892 336.114 53.7929 336.121C53.798 336.131 53.7716 336.076 53.7128 335.892L51.807 336.498ZM54.0475 336.091C54.0475 336.059 54.0511 336.008 54.0603 335.884C54.0681 335.781 54.0789 335.635 54.0795 335.484C54.0801 335.335 54.0716 335.141 54.0251 334.938C53.9791 334.737 53.8813 334.465 53.6568 334.228L52.2028 335.601C52.0994 335.491 52.077 335.391 52.0757 335.385C52.074 335.378 52.0798 335.402 52.0795 335.476C52.0792 335.548 52.074 335.628 52.066 335.735C52.0594 335.821 52.0475 335.965 52.0475 336.091H54.0475ZM53.6568 334.228C53.6023 334.17 53.5613 334.125 53.5264 334.084C53.4921 334.044 53.4717 334.015 53.4595 333.996C53.4377 333.962 53.4569 333.98 53.4587 334.029L51.4599 334.1C51.4877 334.878 52.01 335.397 52.2028 335.601L53.6568 334.228ZM53.4587 334.029C53.418 332.891 53.3417 331.908 53.3417 330.843H51.3417C51.3417 331.948 51.4232 333.073 51.4599 334.1L53.4587 334.029ZM53.3417 330.843C53.3417 330.159 53.2123 329.497 53.1013 328.937C52.984 328.345 52.8861 327.859 52.8706 327.38L50.8716 327.444C50.8934 328.119 51.0307 328.777 51.1394 329.326C51.2544 329.906 51.3417 330.383 51.3417 330.843H53.3417ZM52.8706 327.38C52.8421 326.495 52.8711 325.643 52.8711 324.693H50.8711C50.8711 325.552 50.8419 326.521 50.8716 327.444L52.8706 327.38ZM52.8711 324.693C52.8711 324.491 52.8654 324.285 52.8609 324.097C52.8563 323.903 52.8527 323.724 52.8549 323.549C52.8594 323.195 52.8879 322.909 52.9568 322.668L51.0338 322.118C50.8942 322.607 50.8605 323.096 50.8551 323.523C50.8523 323.739 50.8568 323.951 50.8615 324.145C50.8663 324.344 50.8711 324.521 50.8711 324.693H52.8711ZM52.9568 322.668C52.9509 322.688 52.9027 322.874 52.738 323.051C52.6406 323.156 52.4668 323.295 52.2089 323.347C51.9417 323.401 51.7106 323.336 51.5537 323.254C51.3006 323.121 51.1868 322.919 51.1747 322.899C51.1398 322.841 51.1214 322.796 51.1165 322.784C51.1026 322.749 51.109 322.758 51.1295 322.849C51.1645 323.005 51.1876 323.151 51.1961 323.195L53.1604 322.819C53.1673 322.855 53.1243 322.604 53.081 322.411C53.0622 322.328 53.0264 322.173 52.9737 322.042C52.9591 322.005 52.9312 321.939 52.8871 321.866C52.8659 321.831 52.7432 321.619 52.4817 321.482C52.3206 321.398 52.0853 321.332 51.8141 321.386C51.5522 321.439 51.3745 321.581 51.2734 321.689C51.1013 321.874 51.046 322.075 51.0338 322.118L52.9568 322.668ZM51.1961 323.195C51.2159 323.298 51.2354 323.4 51.2547 323.501L53.2194 323.127C53.1998 323.024 53.18 322.921 53.1604 322.819L51.1961 323.195ZM51.2547 323.501C51.3373 323.935 51.4137 324.351 51.4745 324.765L53.4534 324.475C53.386 324.016 53.3028 323.565 53.2194 323.127L51.2547 323.501ZM51.4745 324.765C51.5067 324.984 51.5342 325.202 51.5556 325.419L53.5459 325.222C53.5209 324.969 53.4892 324.72 53.4534 324.475L51.4745 324.765ZM51.5556 325.419C51.6162 326.031 51.5971 326.682 51.5913 327.438L53.5913 327.454C53.5965 326.767 53.6199 325.97 53.5459 325.222L51.5556 325.419ZM51.5913 327.438C51.5909 327.492 51.5906 327.547 51.5904 327.602L53.5904 327.609C53.5905 327.557 53.5909 327.506 53.5913 327.454L51.5913 327.438ZM51.5904 327.602C51.588 328.245 51.6027 328.949 51.7236 329.636L53.6933 329.29C53.605 328.788 53.5881 328.233 53.5904 327.609L51.5904 327.602ZM51.7236 329.636C51.7294 329.669 51.7354 329.702 51.7417 329.735L53.706 329.359C53.7016 329.336 53.6974 329.313 53.6933 329.29L51.7236 329.636ZM51.7417 329.735C51.7632 329.847 51.7878 329.96 51.8159 330.072L53.7562 329.587C53.7377 329.513 53.721 329.437 53.706 329.359L51.7417 329.735ZM51.8159 330.072C51.8553 330.23 51.8674 330.451 51.856 330.77C51.847 331.019 51.8122 331.478 51.8122 331.797H53.8122C53.8122 331.497 53.8392 331.272 53.8547 330.842C53.8676 330.482 53.8666 330.029 53.7562 329.587L51.8159 330.072ZM51.8122 331.797C51.8122 331.832 51.8124 331.868 51.8128 331.903L53.8126 331.882C53.8123 331.854 53.8122 331.825 53.8122 331.797H51.8122ZM51.8128 331.903C51.8216 332.742 51.9346 333.591 52.1277 334.391L54.0718 333.921C53.9118 333.259 53.8198 332.559 53.8126 331.882L51.8128 331.903ZM52.1277 334.391C52.1373 334.431 52.1464 334.472 52.155 334.516L54.1173 334.129C54.1037 334.06 54.0886 333.991 54.0718 333.921L52.1277 334.391ZM52.155 334.516C52.1581 334.532 52.1611 334.547 52.164 334.563L54.1312 334.202C54.1267 334.178 54.1221 334.154 54.1173 334.129L52.155 334.516ZM52.164 334.563C52.2371 334.962 52.2565 335.41 52.2843 335.911L54.2812 335.8C54.2566 335.357 54.2326 334.755 54.1312 334.202L52.164 334.563ZM52.2843 335.911C52.2926 336.06 52.3462 336.331 52.3803 336.47C52.3904 336.512 52.4058 336.572 52.4259 336.632C52.4348 336.658 52.4542 336.714 52.4853 336.778C52.5003 336.809 52.5308 336.868 52.5794 336.935C52.6117 336.979 52.7345 337.146 52.9666 337.255C53.1003 337.318 53.2868 337.369 53.5054 337.344C53.7268 337.319 53.9039 337.226 54.029 337.123C54.2443 336.947 54.321 336.734 54.3403 336.68C54.3904 336.539 54.3976 336.415 54.3993 336.392C54.4053 336.306 54.4021 336.219 54.3991 336.158L52.4016 336.258C52.404 336.305 52.4013 336.292 52.4042 336.251C52.4043 336.25 52.409 336.142 52.4558 336.01C52.4734 335.961 52.5482 335.751 52.7614 335.576C52.8856 335.475 53.0616 335.382 53.2819 335.357C53.4994 335.332 53.6847 335.383 53.8172 335.445C54.047 335.553 54.1672 335.718 54.1968 335.758C54.2427 335.821 54.2703 335.876 54.2824 335.9C54.3075 335.952 54.3204 335.991 54.3225 335.997C54.3289 336.016 54.329 336.02 54.3235 335.997C54.2948 335.879 54.2788 335.757 54.2812 335.8L52.2843 335.911ZM54.3991 336.158C54.3644 335.465 54.2447 334.8 54.13 334.196L52.1651 334.569C52.2797 335.173 52.3745 335.716 52.4016 336.258L54.3991 336.158ZM54.1185 334.136C53.9617 333.313 53.8215 332.606 53.8126 331.88L51.8128 331.905C51.8242 332.843 52.0062 333.735 52.1538 334.51L54.1185 334.136ZM53.8126 331.88C53.8123 331.857 53.8122 331.833 53.8122 331.81H51.8122C51.8122 331.842 51.8124 331.873 51.8128 331.905L53.8126 331.88ZM53.8122 331.81C53.8122 331.527 53.8034 331.248 53.7909 330.975L51.793 331.066C51.8046 331.321 51.8122 331.568 51.8122 331.81H53.8122ZM53.7909 330.975C53.7635 330.378 53.7302 329.98 53.7076 329.423L51.7093 329.503C51.7288 329.986 51.7729 330.628 51.793 331.066L53.7909 330.975ZM53.7076 329.423C53.7029 329.305 53.6992 329.189 53.6968 329.074L51.6972 329.116C51.6999 329.246 51.7041 329.375 51.7093 329.503L53.7076 329.423ZM53.6968 329.074C53.6958 329.026 53.695 328.978 53.6945 328.931L51.6946 328.952C51.6952 329.006 51.6961 329.061 51.6972 329.116L53.6968 329.074ZM53.6945 328.931C53.6903 328.535 53.6698 328.053 53.5978 327.572L51.6199 327.869C51.6726 328.221 51.6909 328.6 51.6946 328.952L53.6945 328.931ZM53.5978 327.572C53.591 327.527 53.5838 327.482 53.5761 327.437L51.6046 327.774C51.61 327.805 51.615 327.837 51.6199 327.869L53.5978 327.572ZM53.5761 327.437C53.5189 327.102 53.4308 326.745 53.2894 326.409L51.4462 327.186C51.5095 327.336 51.5637 327.534 51.6046 327.774L53.5761 327.437ZM53.2894 326.409C53.3053 326.447 53.2995 326.454 53.295 326.401C53.2906 326.348 53.2901 326.276 53.2937 326.164C53.2966 326.073 53.3044 325.912 53.3054 325.781C53.3064 325.64 53.3018 325.455 53.2661 325.263L51.2996 325.627C51.3113 325.69 51.3051 325.777 51.2947 326.1C51.2877 326.319 51.271 326.77 51.4462 327.186L53.2894 326.409ZM53.2661 325.263C53.1953 324.88 53.224 324.515 53.224 323.915H51.224C51.224 324.333 51.1846 325.006 51.2996 325.627L53.2661 325.263ZM53.224 323.915C53.224 323.734 53.2286 323.547 53.2363 323.354L51.2378 323.275C51.2295 323.486 51.224 323.701 51.224 323.915H53.224ZM53.2363 323.354C53.2634 322.667 53.3417 321.765 53.3417 321.033H51.3417C51.3417 321.736 51.2719 322.414 51.2378 323.275L53.2363 323.354ZM53.3417 321.033C53.3417 321.014 53.3439 321.019 53.3374 321.049C53.3344 321.063 53.3251 321.103 53.3021 321.158C53.2918 321.183 53.2251 321.351 53.0484 321.501C52.9482 321.586 52.7592 321.71 52.489 321.731C52.1979 321.754 51.9577 321.646 51.7994 321.52C51.5504 321.322 51.4864 321.072 51.4819 321.057C51.4507 320.951 51.4593 320.898 51.4593 320.975H53.4593C53.4593 320.854 53.4532 320.671 53.3999 320.49C53.3844 320.438 53.3075 320.165 53.0447 319.955C52.8796 319.824 52.6322 319.714 52.3339 319.737C52.0564 319.759 51.8601 319.886 51.7526 319.978C51.5611 320.141 51.4797 320.332 51.4556 320.39C51.4189 320.478 51.3967 320.561 51.3827 320.626C51.3541 320.758 51.3417 320.897 51.3417 321.033H53.3417ZM51.4593 320.975C51.4593 321.278 51.498 321.575 51.5258 321.798C51.5564 322.044 51.5769 322.22 51.5769 322.386H53.5769C53.5769 322.076 53.5386 321.777 53.5104 321.551C53.4794 321.303 53.4593 321.132 53.4593 320.975H51.4593ZM51.5769 322.386C51.5769 322.63 51.5538 322.852 51.524 323.126C51.4953 323.389 51.4593 323.709 51.4593 324.066H53.4593C53.4593 323.834 53.4821 323.619 53.5122 323.342C53.5412 323.076 53.5769 322.753 53.5769 322.386H51.5769ZM51.4593 324.066C51.4593 324.257 51.461 324.447 51.4641 324.637L53.4638 324.604C53.4609 324.424 53.4593 324.245 53.4593 324.066H51.4593ZM51.4641 324.637C51.4801 325.604 51.5336 326.564 51.5933 327.509L53.5893 327.383C53.53 326.445 53.479 325.522 53.4638 324.604L51.4641 324.637ZM51.5933 327.509C51.5991 327.601 51.605 327.693 51.6109 327.785L53.6067 327.656C53.6009 327.565 53.595 327.474 53.5893 327.383L51.5933 327.509ZM51.6109 327.785C51.6406 328.246 51.6708 328.7 51.6989 329.156L53.6951 329.034C53.6668 328.573 53.636 328.111 53.6067 327.656L51.6109 327.785ZM51.6989 329.156C51.708 329.306 51.717 329.455 51.7255 329.604L53.7222 329.49C53.7135 329.337 53.7044 329.185 53.6951 329.034L51.6989 329.156ZM51.7255 329.604C51.7533 330.09 51.7769 330.572 51.7924 331.053L53.7914 330.988C53.7751 330.486 53.7506 329.986 53.7222 329.49L51.7255 329.604ZM51.7924 331.053C51.8049 331.44 51.8122 331.825 51.8122 332.209H53.8122C53.8122 331.8 53.8045 331.393 53.7914 330.988L51.7924 331.053ZM115 9.5198C115.172 18.1985 119.256 31.1083 130.844 41.8945C142.448 52.6962 161.5 61.2987 191.493 61.5L191.507 59.5C161.9 59.3013 143.368 50.8205 132.206 40.4305C121.027 30.025 117.161 17.6348 117 9.4802L115 9.5198ZM191.5 61.5C217.87 61.5 249.86 43.2629 256.978 9.7075L255.022 9.2925C248.14 41.7371 217.13 59.5 191.5 59.5V61.5ZM58.4995 249.031C59.0008 232.992 57.3038 196.264 50.4569 173.71L48.5431 174.29C55.2963 196.536 56.9993 233.008 56.5005 248.969L58.4995 249.031ZM50.4569 173.71C46.226 159.772 41.3607 137.202 38.2411 114.054C35.1184 90.8835 33.7626 67.2596 36.486 51.1669L34.514 50.8331C31.7374 67.2404 33.1317 91.1165 36.259 114.321C39.3893 137.548 44.2741 160.228 48.5431 174.29L50.4569 173.71ZM58.4993 249.039C59.3329 227.616 60.3332 194.456 60.625 164.597C60.7709 149.669 60.7397 135.558 60.4215 124.149C60.1045 112.784 59.5015 103.986 58.4715 99.763L56.5285 100.237C57.4986 104.214 58.1039 112.787 58.4223 124.204C58.7395 135.578 58.7709 149.66 58.6251 164.578C58.3335 194.411 57.3339 227.551 56.5008 248.961L58.4993 249.039ZM329.999 248.947L325.999 173.947L324.001 174.053L328.001 249.053L329.999 248.947ZM325.966 174.258C329.308 161.725 334.091 140.539 337.589 117.676C341.084 94.8283 343.307 70.231 341.496 50.9067L339.504 51.0933C341.293 70.169 339.1 94.5717 335.612 117.374C332.126 140.161 327.358 161.275 324.034 173.742L325.966 174.258ZM227.11 470.006C224.774 469.747 220.501 469.764 214.868 469.998C209.21 470.233 202.116 470.69 194.096 471.328C178.055 472.604 158.291 474.606 138.877 477.008L139.123 478.992C158.509 476.594 178.245 474.596 194.254 473.322C202.259 472.685 209.327 472.23 214.951 471.996C220.599 471.761 224.726 471.753 226.89 471.994L227.11 470.006ZM138.917 477.003C127.043 477.993 100.48 475.344 87.6414 473.51L87.3586 475.49C100.186 477.323 126.957 480.007 139.083 478.997L138.917 477.003ZM49.0236 337.216C53.8609 359.067 63.8043 404.842 65.0006 439.534L66.9994 439.466C65.7957 404.558 55.8058 358.6 50.9764 336.784L49.0236 337.216ZM318.5 93.4756C317.667 127.653 315.6 201.96 314.002 225.933L315.998 226.067C317.6 202.04 319.667 127.681 320.5 93.5244L318.5 93.4756ZM314.002 225.933C312.996 241.022 314.13 253.596 315.504 268.778C316.878 283.959 318.5 301.797 318.5 327.5H320.5C320.5 301.703 318.872 283.791 317.496 268.597C316.12 253.404 315.004 240.978 315.998 226.067L314.002 225.933ZM318.5 327.5C318.5 368.452 299.258 411.906 289.635 428.498L291.365 429.502C301.075 412.76 320.5 368.948 320.5 327.5H318.5ZM5.19372 234.811C5.28173 234.822 5.34686 234.848 5.38516 234.866C5.4229 234.884 5.44364 234.899 5.44689 234.902C5.44915 234.903 5.42695 234.886 5.37615 234.828C5.32615 234.771 5.27769 234.71 5.20917 234.624C5.15462 234.556 5.06304 234.441 4.96616 234.344L3.55195 235.758C3.54911 235.755 3.55564 235.762 3.57516 235.785C3.59398 235.807 3.61633 235.835 3.6467 235.873C3.70131 235.941 3.78551 236.048 3.87468 236.149C3.96305 236.25 4.08649 236.38 4.23785 236.495C4.3825 236.605 4.62421 236.756 4.94565 236.796L5.19372 234.811ZM4.96616 234.344C4.87506 234.253 4.77263 234.162 4.68551 234.087C4.58807 234.002 4.51087 233.936 4.42527 233.86C4.34353 233.788 4.27893 233.727 4.22968 233.676C4.17639 233.62 4.16622 233.601 4.17432 233.615L2.46776 234.658C2.647 234.951 2.92801 235.206 3.09785 235.356C3.32897 235.561 3.44968 235.656 3.55195 235.758L4.96616 234.344ZM4.17432 233.615C4.08123 233.462 3.90149 233.162 3.65806 232.906C3.41659 232.652 2.98204 232.302 2.35986 232.302V234.302C2.27881 234.302 2.2187 234.278 2.19121 234.263C2.1698 234.251 2.17654 234.25 2.2083 234.284C2.23908 234.316 2.27761 234.364 2.32448 234.432C2.37159 234.501 2.41578 234.573 2.46776 234.658L4.17432 233.615ZM7.33729 237.677C7.28785 237.668 7.25833 237.656 7.25375 237.655C7.24784 237.652 7.25208 237.654 7.26868 237.663C7.28479 237.671 7.30549 237.684 7.33354 237.701C7.34733 237.71 7.36167 237.719 7.3778 237.729C7.39211 237.738 7.41242 237.752 7.42939 237.762L8.50314 236.075C8.45855 236.047 8.34548 235.972 8.231 235.909C8.12241 235.85 7.92936 235.752 7.69506 235.71L7.33729 237.677ZM7.42939 237.762C7.85228 238.031 8.30174 238.189 8.6964 238.3C9.02438 238.392 9.54123 238.506 9.77457 238.566L10.2788 236.631C9.82451 236.513 9.61555 236.48 9.23745 236.374C8.92602 236.287 8.68909 236.193 8.50314 236.075L7.42939 237.762ZM9.77457 238.566C10.2855 238.7 10.8007 238.727 11.1415 238.765L11.3624 236.777C10.8629 236.722 10.6041 236.716 10.2788 236.631L9.77457 238.566ZM11.1415 238.765C11.1553 238.767 11.1589 238.768 11.2721 238.796C11.3682 238.82 11.5481 238.864 11.7696 238.864V236.864C11.8056 236.864 11.8237 236.872 11.7558 236.855C11.7051 236.843 11.5426 236.797 11.3624 236.777L11.1415 238.765ZM11.7696 238.864H12.0846V236.864H11.7696V238.864ZM12.0846 238.864C12.136 238.864 12.2239 238.861 12.3272 238.839C12.4113 238.821 12.6318 238.764 12.8314 238.569C13.0887 238.318 13.175 237.974 13.1217 237.67C13.0801 237.432 12.9656 237.274 12.9202 237.215C12.8216 237.088 12.7111 237.007 12.6769 236.982C12.6247 236.943 12.5736 236.911 12.5349 236.888C12.457 236.84 12.3752 236.796 12.3231 236.769C12.2281 236.718 12.2568 236.733 12.2903 236.754L11.2038 238.433C11.2655 238.473 11.3768 238.531 11.3833 238.534C11.4328 238.56 11.4714 238.582 11.4972 238.597C11.5104 238.605 11.507 238.604 11.4938 238.594C11.4869 238.589 11.47 238.577 11.4479 238.557C11.4291 238.54 11.3853 238.5 11.3375 238.438C11.3006 238.39 11.1916 238.243 11.1516 238.015C11.0999 237.719 11.1839 237.383 11.4347 237.138C11.6276 236.95 11.8371 236.898 11.9053 236.884C11.9926 236.865 12.0597 236.864 12.0846 236.864V238.864ZM14.4632 239.247C14.9317 239.347 15.4006 239.444 15.8751 239.532L16.2409 237.566C15.791 237.482 15.3415 237.39 14.8823 237.291L14.4632 239.247ZM15.8751 239.532C16.208 239.594 16.5573 239.588 16.753 239.59C16.9977 239.592 17.1035 239.603 17.1692 239.623L17.7374 237.705C17.3708 237.597 17.0042 237.592 16.772 237.59C16.4907 237.587 16.3585 237.588 16.2409 237.566L15.8751 239.532ZM17.1692 239.623C17.5515 239.736 17.8652 239.764 18.2185 239.764V237.764C17.9983 237.764 17.8859 237.749 17.7374 237.705L17.1692 239.623ZM18.2185 239.764C18.2672 239.764 18.3153 239.761 18.3422 239.76C18.3725 239.758 18.4098 239.755 18.4379 239.753C18.5026 239.749 18.5577 239.746 18.6052 239.745C18.6624 239.744 18.6622 239.748 18.6285 239.742C18.6131 239.74 18.5422 239.728 18.4498 239.686C18.3687 239.649 18.1476 239.533 18.0092 239.256L19.798 238.362C19.6459 238.058 19.397 237.92 19.2775 237.865C19.1466 237.806 19.0264 237.781 18.9542 237.769C18.8068 237.745 18.6628 237.744 18.5716 237.745C18.4706 237.747 18.3727 237.753 18.3056 237.758C18.2118 237.764 18.2071 237.764 18.2185 237.764V239.764Z" fill="black"/>
</svg>
